<?xml version="1.0" standalone="no"?>
<!DOCTYPE svg PUBLIC "-//W3C//DTD SVG 20010904//EN"
 "http://www.w3.org/TR/2001/REC-SVG-20010904/DTD/svg10.dtd">
<svg version="1.0" xmlns="http://www.w3.org/2000/svg"
 width="500.000000pt" height="500.000000pt" viewBox="0 0 500.000000 500.000000"
 preserveAspectRatio="xMidYMid meet">
<metadata>
Created by potrace 1.14, written by Peter Selinger 2001-2017
</metadata>
<g transform="translate(0.000000,500.000000) scale(0.100000,-0.100000)"
fill="#000000" stroke="none">
<path d="M125 3930 c-11 -4 -30 -21 -42 -37 -20 -28 -21 -33 -8 -94 19 -88 41
-147 127 -344 97 -220 157 -364 256 -610 225 -565 435 -1023 499 -1092 23 -25
41 -32 84 -38 124 -15 117 -18 143 56 49 141 126 265 510 824 234 340 421 670
481 845 34 99 33 163 -4 244 -40 89 -96 122 -133 79 -8 -10 -48 -92 -88 -183
-160 -363 -268 -570 -473 -910 -175 -289 -398 -607 -418 -594 -27 17 -386 847
-742 1718 -38 94 -50 112 -78 127 -36 19 -81 23 -114 9z"/>
<path d="M3724 3893 c-37 -40 -117 -190 -183 -343 -70 -160 -189 -353 -351
-570 -170 -227 -237 -320 -402 -563 -260 -383 -416 -577 -462 -577 -9 0 -34
-7 -56 -16 -34 -14 -40 -21 -40 -45 0 -62 95 -126 195 -130 133 -6 198 50 438
384 78 107 140 183 157 192 16 8 107 28 202 45 239 40 394 74 534 115 65 19
140 35 166 35 48 0 90 13 120 38 20 17 20 17 68 -116 87 -242 218 -502 302
-596 45 -50 54 -56 90 -56 107 0 161 107 107 213 -12 23 -52 85 -89 137 -37
52 -77 113 -88 135 -48 96 -128 306 -254 670 -114 330 -179 504 -234 629 l-44
99 0 154 c0 150 -1 155 -25 178 -19 19 -35 25 -71 25 -41 0 -50 -4 -80 -37z
m60 -635 c46 -110 196 -539 196 -562 0 -14 -11 -17 -319 -96 -247 -64 -464
-101 -482 -83 -10 10 63 141 198 353 108 170 341 500 353 500 3 0 28 -51 54
-112z"/>
</g>
</svg>
